<svg width="806" height="386" viewBox="0 0 806 386" fill="none" xmlns="http://www.w3.org/2000/svg">
<path d="M39.8522 157.85H27.4922V216.374H39.8522V193.286H49.4255V180.938H39.8522V157.85Z" fill="url(#paint0_linear_206_383)"/>
<path d="M64.2812 216.374H76.6279V157.85H64.2812V216.374Z" fill="url(#paint1_linear_206_383)"/>
<path d="M122.906 216.374H135.253V157.85H122.906V216.374Z" fill="url(#paint2_linear_206_383)"/>
<path d="M263.027 216.374H275.374V157.85H263.027V216.374Z" fill="url(#paint3_linear_206_383)"/>
<path d="M181.227 169.293H221.32V156.944H181.227V169.293Z" fill="url(#paint4_linear_206_383)"/>
<path d="M566.348 169.293H610.374V156.944H566.348V169.293Z" fill="url(#paint5_linear_206_383)"/>
<path d="M733.641 169.293H777.667V156.944H733.641V169.293Z" fill="url(#paint6_linear_206_383)"/>
<path d="M749.48 181.384V217.177H761.827V181.384H749.48Z" fill="url(#paint7_linear_206_383)"/>
<path d="M566.348 217.177H610.374V204.828H566.348V217.177Z" fill="url(#paint8_linear_206_383)"/>
<path d="M566.348 191.971H610.374V182.149H566.348V191.971Z" fill="url(#paint9_linear_206_383)"/>
<path d="M181.227 216.374H193.573V194.923H221.32V182.575H181.227V216.374Z" fill="url(#paint10_linear_206_383)"/>
<path d="M483.694 193.662V157.847H471.348V193.662C471.348 205.28 479.188 215.107 489.841 218.107V204.75C486.161 202.436 483.694 198.331 483.694 193.662Z" fill="url(#paint11_linear_206_383)"/>
<path d="M509.812 193.662C509.812 198.331 507.346 202.436 503.652 204.75V218.107C514.319 215.107 522.159 205.28 522.159 193.662V157.847H509.812V193.662Z" fill="url(#paint12_linear_206_383)"/>
<path d="M667.427 180.676L667.414 180.224C662.827 180.398 661.16 177.832 660.667 176.728C660.027 175.328 659.88 173.266 661.374 171.693C663.4 169.561 668.32 168.405 676.467 170.484L685.454 160.352C665.827 153.306 656.361 159.039 652.427 163.196C647.721 168.136 646.547 175.441 649.4 181.799C651.24 185.877 654.454 188.99 658.454 190.8L667.427 180.676Z" fill="url(#paint13_linear_206_383)"/>
<path d="M690.72 193.339C688.947 189.408 685.92 186.382 682.107 184.547L672.761 194.914C677.307 194.766 678.96 197.314 679.454 198.41C680.094 199.818 680.24 201.879 678.747 203.446C676.747 205.55 671.907 206.715 663.92 204.715L654.787 214.828C661.427 217.203 666.907 218.107 671.387 218.107C680.107 218.107 685.107 214.682 687.694 211.951C692.387 207.002 693.574 199.696 690.72 193.339Z" fill="url(#paint14_linear_206_383)"/>
<path d="M396.908 156.891C392.321 157.212 388.001 158.569 384.188 160.725L392.427 170.449C394.201 169.727 396.107 169.301 398.094 169.196C408.481 168.657 417.094 176.963 417.094 187.233C417.094 190.625 416.148 193.808 414.508 196.513L422.761 206.228C426.947 201.019 429.441 194.416 429.441 187.233C429.441 169.761 414.641 155.673 396.908 156.891Z" fill="url(#paint15_linear_206_383)"/>
<path d="M403.84 204.636C402.306 205.063 400.706 205.288 399.04 205.288C398.506 205.288 397.973 205.261 397.453 205.209C388.106 204.411 380.773 196.409 380.999 186.799C381.039 184.693 381.466 182.668 382.199 180.789L373.346 171.032C370.733 175.137 369.079 179.903 368.719 185.007C367.439 202.767 381.533 217.637 399.04 217.637C399.253 217.637 399.453 217.637 399.653 217.629L402.64 221.151C406.586 225.812 412.399 228.5 418.519 228.5H425.066L418.88 221.203L403.84 204.636Z" fill="url(#paint16_linear_206_383)"/>
<path d="M27.2129 -0.00012207V95.4492H41.6262V14.4132H763.546V95.4492H777.96V-0.00012207H27.2129ZM763.546 370.917H41.6262V289.863H27.2129V385.331H777.96V289.863H763.546V370.917Z" fill="url(#paint17_linear_206_383)"/>
<path d="M780.961 104.075L770.761 114.272L736.348 79.86L746.548 69.664L780.961 104.075Z" fill="url(#paint18_linear_206_383)"/>
<path d="M770.72 114.399V114.266H770.586V114.132H770.453V113.999H770.32V113.866H770.186V113.732H770.053V113.599H769.92V113.466H769.786V113.332H769.653V113.199H769.52V113.066H769.386V112.932H769.253V112.799H769.12V112.666H768.986V112.532H768.853V112.399H768.72V112.266H768.586V112.132H768.453V111.999H768.32V111.866H768.186V111.732H768.053V111.599H767.92V111.466H767.786V111.332H767.653V111.199H767.52V111.066H767.386V110.932H767.253V110.799H767.12V110.666H766.986V110.532H766.853V110.399H766.72V110.266H766.586V110.132H766.453V109.999H766.32V109.866H766.186V109.732H766.053V109.599H765.92V109.466H765.786V109.332H765.653V109.199H765.52V109.066H765.386V108.932H765.253V108.799H765.12V108.666H764.986V108.532H764.853V108.399H764.72V108.266H764.586V108.132H764.453V107.999H764.32V107.866H764.186V107.732H764.053V107.599H763.92V107.466H763.786V107.332H763.653V107.199H763.52V107.066H763.386V106.932H763.253V106.799H763.12V106.666H762.986V106.532H762.853V106.399H762.72V106.266H762.586V106.132H762.453V105.999H762.32V105.866H762.186V105.732H762.053V105.599H761.92V105.466H761.786V105.332H761.653V105.199H761.52V105.066H761.386V104.932H761.253V104.799H761.12V104.666H760.986V104.532H760.853V104.399H760.72V104.266H760.586V104.132H760.453V103.999H760.586V103.866H760.72V103.732H760.853V103.599H760.986V103.466H761.12V103.332H761.253V103.199H761.386V103.066H761.52V102.932H761.653V102.799H761.786V102.666H761.92V102.532H762.053V102.399H762.186V102.266H762.32V102.132H762.453V101.999H762.586V101.866H762.72V101.732H762.853V101.599H762.986V101.466H763.12V101.332H763.253V101.199H763.386V101.066H763.52V100.932H763.653V100.799H763.786V100.666H763.92V100.532H764.053V100.399H764.186V100.266H764.32V100.132H764.453V99.9989H764.586V99.8656H764.72V99.7323H764.853V99.5989H764.986V99.4656H765.12V99.3323H765.253V99.1989H765.386V99.0656H765.52V98.9323H765.653V98.7989H765.786V98.6656H765.92V98.5323H766.053V98.3989H766.186V98.2656H766.32V98.1323H766.453V97.9989H766.586V97.8656H766.72V97.7323H766.853V97.5989H766.986V97.4656H767.12V97.3323H767.253V97.1989H767.386V97.0656H767.52V96.9323H767.653V96.7989H767.786V96.6656H767.92V96.5323H768.053V96.3989H768.186V96.2656H768.32V96.1323H768.453V95.9989H768.586V95.8656H768.72V95.7323H768.853V95.5989H768.986V95.4656H769.12V95.3323H769.253V95.1989H769.386V95.0656H769.52V94.9323H769.653V94.7989H769.786V94.6656H769.92V94.5323H770.053V94.3989H770.186V94.2656H770.32V94.1323H770.453V93.9989H770.586V93.8656H770.72V93.7323H770.853V93.5989H770.986V93.4656H771.12V93.3323H771.253V93.1989H771.386V93.0656H771.52V92.9323H771.653V92.7989H771.786V92.6656H771.92V92.5323H772.053V92.3989H772.186V92.2656H772.32V92.1323H772.453V91.9989H772.586V91.8656H772.72V91.7323H772.853V91.5989H772.986V91.4656H773.12V91.3323H773.253V91.1989H773.386V91.0656H773.52V90.9323H773.653V90.7989H773.786V90.6656H773.92V90.5323H774.053V90.3989H774.186V90.2656H774.32V90.1323H774.453V89.9989H774.586V89.8656H774.72V89.7323H774.853V89.5989H774.986V89.4656H775.12V89.3323H775.253V89.1989H775.386V89.0656H775.52V88.9323H775.653V88.7989H775.786V88.6656H775.92V88.5323H776.053V88.3989H776.186V88.2656H776.32V88.1323H776.453V87.9989H776.586V87.8656H776.72V87.7323H776.853V87.5989H776.986V87.4656H777.12V87.3323H777.253V87.1989H777.386V87.0656H777.52V86.9323H777.653V86.7989H777.786V86.6656H777.92V86.5323H778.053V86.3989H778.186V86.2656H778.32V86.1323H778.453V85.9989H778.586V85.8656H778.72V85.7323H778.853V85.5989H778.986V85.4656H779.12V85.3323H779.253V85.1989H779.386V85.0656H779.52V84.9323H779.653V84.7989H779.786V84.6656H779.92V84.5323H780.053V84.3989H780.186V84.2656H780.32V84.1323H780.453V83.9989H780.586V83.8656H780.72V83.7323H780.853V83.5989H780.986V83.4656H781.12V83.3323H781.253V83.1989H781.386V83.0656H781.52V82.9323H781.653V82.7989H781.786V82.6656H781.92V82.5323H782.053V82.3989H782.186V82.2656H782.32V82.1323H782.453V81.9989H782.586V81.8656H782.72V81.7323H782.853V81.5989H782.986V81.4656H783.12V81.3323H783.253V81.1989H783.386V81.0656H783.52V80.9323H783.653V80.7989H783.786V80.6656H783.92V80.5323H784.053V80.3989H784.186V80.2656H784.32V80.1323H784.453V79.9989H784.586V79.8656H784.72V79.7323H784.853V79.5989H784.986V79.4656H785.12V79.3323H785.253V79.1989H785.386V79.0656H785.52V78.9323H785.653V78.7989H785.786V78.6656H785.92V78.5323H786.053V78.3989H786.186V78.2656H786.32V78.1323H786.453V77.9989H786.586V77.8656H786.72V77.7323H786.853V77.5989H786.986V77.4656H787.12V77.3323H787.253V77.1989H787.386V77.0656H787.52V76.9323H787.653V76.7989H787.786V76.6656H787.92V76.5323H788.053V76.3989H788.186V76.2656H788.32V76.1323H788.453V75.9989H788.586V75.8656H788.72V75.7323H788.853V75.5989H788.986V75.4656H789.12V75.3323H789.253V75.1989H789.386V75.0656H789.52V74.9323H789.653V74.7989H789.786V74.6656H789.92V74.5323H790.053V74.3989H790.186V74.2656H790.32V74.1323H790.453V73.9989H790.586V73.8656H790.72V73.7323H790.853V73.5989H790.986V73.4656H791.12V73.3323H791.253V73.1989H791.386V73.0656H791.52V72.9323H791.653V72.7989H791.786V72.6656H791.92V72.5323H792.053V72.3989H792.186V72.2656H792.32V72.1323H792.453V71.9989H792.586V71.8656H792.72V71.7323H792.853V71.5989H792.986V71.4656H793.12V71.3323H793.253V71.1989H793.386V71.0656H793.52V70.9323H793.653V70.7989H793.786V70.6656H793.92V70.5323H794.053V70.3989H794.186V70.2656H794.32V70.1323H794.453V69.9989H794.586V69.8656H794.72V69.7323H794.853V69.5989H795.12V69.7323H795.253V69.8656H795.386V69.9989H795.52V70.1323H795.653V70.2656H795.786V70.3989H795.92V70.5323H796.053V70.6656H796.186V70.7989H796.32V70.9323H796.453V71.0656H796.586V71.1989H796.72V71.3323H796.853V71.4656H796.986V71.5989H797.12V71.7323H797.253V71.8656H797.386V71.9989H797.52V72.1323H797.653V72.2656H797.786V72.3989H797.92V72.5323H798.053V72.6656H798.186V72.7989H798.32V72.9323H798.453V73.0656H798.586V73.1989H798.72V73.3323H798.853V73.4656H798.986V73.5989H799.12V73.7323H799.253V73.8656H799.386V73.9989H799.52V74.1323H799.653V74.2656H799.786V74.3989H799.92V74.5323H800.053V74.6656H800.186V74.7989H800.32V74.9323H800.453V75.0656H800.586V75.1989H800.72V75.3323H800.853V75.4656H800.986V75.5989H801.12V75.7323H801.253V75.8656H801.386V75.9989H801.52V76.1323H801.653V76.2656H801.786V76.3989H801.92V76.5323H802.053V76.6656H802.186V76.7989H802.32V76.9323H802.453V77.0656H802.586V77.1989H802.72V77.3323H802.853V77.4656H802.986V77.5989H803.12V77.7323H803.253V77.8656H803.386V77.9989H803.52V78.1323H803.653V78.2656H803.786V78.3989H803.92V78.5323H804.053V78.6656H804.186V78.7989H804.32V78.9323H804.453V79.0656H804.586V79.1989H804.72V79.3323H804.853V79.4656H804.986V79.5989H805.12V80.1323H804.986V80.2656H804.853V80.3989H804.72V80.5323H804.586V80.6656H804.453V80.7989H804.32V80.9323H804.186V81.0656H804.053V81.1989H803.92V81.3323H803.786V81.4656H803.653V81.5989H803.52V81.7323H803.386V81.8656H803.253V81.9989H803.12V82.1323H802.986V82.2656H802.853V82.3989H802.72V82.5323H802.586V82.6656H802.453V82.7989H802.32V82.9323H802.186V83.0656H802.053V83.1989H801.92V83.3323H801.786V83.4656H801.653V83.5989H801.52V83.7323H801.386V83.8656H801.253V83.9989H801.12V84.1323H800.986V84.2656H800.853V84.3989H800.72V84.5323H800.586V84.6656H800.453V84.7989H800.32V84.9323H800.186V85.0656H800.053V85.1989H799.92V85.3323H799.786V85.4656H799.653V85.5989H799.52V85.7323H799.386V85.8656H799.253V85.9989H799.12V86.1323H798.986V86.2656H798.853V86.3989H798.72V86.5323H798.586V86.6656H798.453V86.7989H798.32V86.9323H798.186V87.0656H798.053V87.1989H797.92V87.3323H797.786V87.4656H797.653V87.5989H797.52V87.7323H797.386V87.8656H797.253V87.9989H797.12V88.1323H796.986V88.2656H796.853V88.3989H796.72V88.5323H796.586V88.6656H796.453V88.7989H796.32V88.9323H796.186V89.0656H796.053V89.1989H795.92V89.3323H795.786V89.4656H795.653V89.5989H795.52V89.7323H795.386V89.8656H795.253V89.9989H795.12V90.1323H794.986V90.2656H794.853V90.3989H794.72V90.5323H794.586V90.6656H794.453V90.7989H794.32V90.9323H794.186V91.0656H794.053V91.1989H793.92V91.3323H793.786V91.4656H793.653V91.5989H793.52V91.7323H793.386V91.8656H793.253V91.9989H793.12V92.1323H792.986V92.2656H792.853V92.3989H792.72V92.5323H792.586V92.6656H792.453V92.7989H792.32V92.9323H792.186V93.0656H792.053V93.1989H791.92V93.3323H791.786V93.4656H791.653V93.5989H791.52V93.7323H791.386V93.8656H791.253V93.9989H791.12V94.1323H790.986V94.2656H790.853V94.3989H790.72V94.5323H790.586V94.6656H790.453V94.7989H790.32V94.9323H790.186V95.0656H790.053V95.1989H789.92V95.3323H789.786V95.4656H789.653V95.5989H789.52V95.7323H789.386V95.8656H789.253V95.9989H789.12V96.1323H788.986V96.2656H788.853V96.3989H788.72V96.5323H788.586V96.6656H788.453V96.7989H788.32V96.9323H788.186V97.0656H788.053V97.1989H787.92V97.3323H787.786V97.4656H787.653V97.5989H787.52V97.7323H787.386V97.8656H787.253V97.9989H787.12V98.1323H786.986V98.2656H786.853V98.3989H786.72V98.5323H786.586V98.6656H786.453V98.7989H786.32V98.9323H786.186V99.0656H786.053V99.1989H785.92V99.3323H785.786V99.4656H785.653V99.5989H785.52V99.7323H785.386V99.8656H785.253V99.9989H785.12V100.132H784.986V100.266H784.853V100.399H784.72V100.532H784.586V100.666H784.453V100.799H784.32V100.932H784.186V101.066H784.053V101.199H783.92V101.332H783.786V101.466H783.653V101.599H783.52V101.732H783.386V101.866H783.253V101.999H783.12V102.132H782.986V102.266H782.853V102.399H782.72V102.532H782.586V102.666H782.453V102.799H782.32V102.932H782.186V103.066H782.053V103.199H781.92V103.332H781.786V103.466H781.653V103.599H781.52V103.732H781.386V103.866H781.253V103.999H781.12V104.132H780.986V104.266H780.853V104.399H780.72V104.532H780.586V104.666H780.453V104.799H780.32V104.932H780.186V105.066H780.053V105.199H779.92V105.332H779.786V105.466H779.653V105.599H779.52V105.732H779.386V105.866H779.253V105.999H779.12V106.132H778.986V106.266H778.853V106.399H778.72V106.532H778.586V106.666H778.453V106.799H778.32V106.932H778.186V107.066H778.053V107.199H777.92V107.332H777.786V107.466H777.653V107.599H777.52V107.732H777.386V107.866H777.253V107.999H777.12V108.132H776.986V108.266H776.853V108.399H776.72V108.532H776.586V108.666H776.453V108.799H776.32V108.932H776.186V109.066H776.053V109.199H775.92V109.332H775.786V109.466H775.653V109.599H775.52V109.732H775.386V109.866H775.253V109.999H775.12V110.132H774.986V110.266H774.853V110.399H774.72V110.532H774.586V110.666H774.453V110.799H774.32V110.932H774.186V111.066H774.053V111.199H773.92V111.332H773.786V111.466H773.653V111.599H773.52V111.732H773.386V111.866H773.253V111.999H773.12V112.132H772.986V112.266H772.853V112.399H772.72V112.532H772.586V112.666H772.453V112.799H772.32V112.932H772.186V113.066H772.053V113.199H771.92V113.332H771.786V113.466H771.653V113.599H771.52V113.732H771.386V113.866H771.253V113.999H771.12V114.132H770.986V114.266H770.853V114.399" fill="url(#paint19_linear_206_383)"/>
<path d="M44.6134 280.423L34.4134 270.227L0 304.638L10.2 314.835L44.6134 280.423Z" fill="url(#paint20_linear_206_383)"/>
<path d="M68.8262 304.638L44.6129 280.423L34.4129 270.227L24.2129 280.423L34.4129 290.62L58.6262 314.835L68.8262 304.638Z" fill="url(#paint21_linear_206_383)"/>
<defs>
<linearGradient id="paint0_linear_206_383" x1="27.6389" y1="187.112" x2="778.62" y2="187.112" gradientUnits="userSpaceOnUse">
<stop stop-color="#78349D"/>
<stop offset="1" stop-color="#54C7DE"/>
</linearGradient>
<linearGradient id="paint1_linear_206_383" x1="27.6414" y1="187.112" x2="778.62" y2="187.112" gradientUnits="userSpaceOnUse">
<stop stop-color="#78349D"/>
<stop offset="1" stop-color="#54C7DE"/>
</linearGradient>
<linearGradient id="paint2_linear_206_383" x1="27.64" y1="187.112" x2="778.618" y2="187.112" gradientUnits="userSpaceOnUse">
<stop stop-color="#78349D"/>
<stop offset="1" stop-color="#54C7DE"/>
</linearGradient>
<linearGradient id="paint3_linear_206_383" x1="27.6392" y1="187.112" x2="778.625" y2="187.112" gradientUnits="userSpaceOnUse">
<stop stop-color="#78349D"/>
<stop offset="1" stop-color="#54C7DE"/>
</linearGradient>
<linearGradient id="paint4_linear_206_383" x1="27.6398" y1="163.119" x2="778.622" y2="163.119" gradientUnits="userSpaceOnUse">
<stop stop-color="#78349D"/>
<stop offset="1" stop-color="#54C7DE"/>
</linearGradient>
<linearGradient id="paint5_linear_206_383" x1="27.6391" y1="163.119" x2="778.623" y2="163.119" gradientUnits="userSpaceOnUse">
<stop stop-color="#78349D"/>
<stop offset="1" stop-color="#54C7DE"/>
</linearGradient>
<linearGradient id="paint6_linear_206_383" x1="27.6424" y1="163.119" x2="778.622" y2="163.119" gradientUnits="userSpaceOnUse">
<stop stop-color="#78349D"/>
<stop offset="1" stop-color="#54C7DE"/>
</linearGradient>
<linearGradient id="paint7_linear_206_383" x1="27.6283" y1="199.28" x2="778.622" y2="199.28" gradientUnits="userSpaceOnUse">
<stop stop-color="#78349D"/>
<stop offset="1" stop-color="#54C7DE"/>
</linearGradient>
<linearGradient id="paint8_linear_206_383" x1="27.6391" y1="211.003" x2="778.623" y2="211.003" gradientUnits="userSpaceOnUse">
<stop stop-color="#78349D"/>
<stop offset="1" stop-color="#54C7DE"/>
</linearGradient>
<linearGradient id="paint9_linear_206_383" x1="27.6391" y1="187.06" x2="778.623" y2="187.06" gradientUnits="userSpaceOnUse">
<stop stop-color="#78349D"/>
<stop offset="1" stop-color="#54C7DE"/>
</linearGradient>
<linearGradient id="paint10_linear_206_383" x1="27.6398" y1="199.475" x2="778.622" y2="199.475" gradientUnits="userSpaceOnUse">
<stop stop-color="#78349D"/>
<stop offset="1" stop-color="#54C7DE"/>
</linearGradient>
<linearGradient id="paint11_linear_206_383" x1="27.6404" y1="187.978" x2="778.623" y2="187.978" gradientUnits="userSpaceOnUse">
<stop stop-color="#78349D"/>
<stop offset="1" stop-color="#54C7DE"/>
</linearGradient>
<linearGradient id="paint12_linear_206_383" x1="27.6397" y1="187.978" x2="778.62" y2="187.978" gradientUnits="userSpaceOnUse">
<stop stop-color="#78349D"/>
<stop offset="1" stop-color="#54C7DE"/>
</linearGradient>
<linearGradient id="paint13_linear_206_383" x1="27.6403" y1="173.916" x2="778.622" y2="173.916" gradientUnits="userSpaceOnUse">
<stop stop-color="#78349D"/>
<stop offset="1" stop-color="#54C7DE"/>
</linearGradient>
<linearGradient id="paint14_linear_206_383" x1="27.6399" y1="201.327" x2="778.622" y2="201.327" gradientUnits="userSpaceOnUse">
<stop stop-color="#78349D"/>
<stop offset="1" stop-color="#54C7DE"/>
</linearGradient>
<linearGradient id="paint15_linear_206_383" x1="27.6404" y1="181.523" x2="778.623" y2="181.523" gradientUnits="userSpaceOnUse">
<stop stop-color="#78349D"/>
<stop offset="1" stop-color="#54C7DE"/>
</linearGradient>
<linearGradient id="paint16_linear_206_383" x1="27.6398" y1="199.765" x2="778.62" y2="199.765" gradientUnits="userSpaceOnUse">
<stop stop-color="#78349D"/>
<stop offset="1" stop-color="#54C7DE"/>
</linearGradient>
<linearGradient id="paint17_linear_206_383" x1="27.2129" y1="192.665" x2="777.968" y2="192.665" gradientUnits="userSpaceOnUse">
<stop stop-color="#78349D"/>
<stop offset="1" stop-color="#54C7DE"/>
</linearGradient>
<linearGradient id="paint18_linear_206_383" x1="27.6377" y1="91.968" x2="778.623" y2="91.968" gradientUnits="userSpaceOnUse">
<stop stop-color="#78349D"/>
<stop offset="1" stop-color="#54C7DE"/>
</linearGradient>
<linearGradient id="paint19_linear_206_383" x1="27.6398" y1="91.9683" x2="778.621" y2="91.9683" gradientUnits="userSpaceOnUse">
<stop stop-color="#78349D"/>
<stop offset="1" stop-color="#54C7DE"/>
</linearGradient>
<linearGradient id="paint20_linear_206_383" x1="27.64" y1="292.53" x2="778.623" y2="292.53" gradientUnits="userSpaceOnUse">
<stop stop-color="#78349D"/>
<stop offset="1" stop-color="#54C7DE"/>
</linearGradient>
<linearGradient id="paint21_linear_206_383" x1="27.6396" y1="292.53" x2="778.62" y2="292.53" gradientUnits="userSpaceOnUse">
<stop stop-color="#78349D"/>
<stop offset="1" stop-color="#54C7DE"/>
</linearGradient>
</defs>
</svg>
